<svg width="23" height="23" viewBox="0 0 23 23" fill="none" xmlns="http://www.w3.org/2000/svg">
<path fill-rule="evenodd" clip-rule="evenodd" d="M13.7808 4.11882C13.0212 2.9285 11.4472 2.51682 10.1872 3.21513C9.74271 3.45947 9.37434 3.82751 9.12743 4.2743L2.15865 16.4707L2.09663 16.6348C1.60402 18.0596 2.27207 19.5453 3.60695 20.0891L3.82066 20.1651C4.03674 20.2322 4.25952 20.2721 4.48571 20.2848L4.5655 20.2831L4.59588 20.2859H18.4745L18.6432 20.2722C20.091 20.112 21.1542 18.8772 21.0802 17.4372C21.063 17.1299 20.9967 16.8319 20.8824 16.5539L13.8679 4.26538L13.7808 4.11882ZM10.8819 4.47364C11.4995 4.13132 12.2742 4.35402 12.615 4.96989L19.5936 17.1839L19.6143 17.2773C19.6267 17.3413 19.6399 17.4269 19.6448 17.5144C19.6807 18.2137 19.1404 18.8126 18.4369 18.8494L4.59588 18.8484L4.56646 18.8495L4.42211 18.8337C4.32728 18.8181 4.23504 18.7923 4.14662 18.7567C3.49753 18.4923 3.18401 17.7495 3.44867 17.0977L10.3806 4.97852L10.459 4.85322C10.5716 4.69376 10.7153 4.56523 10.8819 4.47364ZM10.7815 15.5917C10.7815 15.195 11.1035 14.8672 11.5003 14.8672C11.897 14.8672 12.219 15.1844 12.219 15.5812V15.5917C12.219 15.9885 11.897 16.3105 11.5003 16.3105C11.1035 16.3105 10.7815 15.9885 10.7815 15.5917ZM12.2025 9.76957C12.1549 9.41875 11.8542 9.14835 11.4903 9.14835C11.0934 9.14835 10.7716 9.47015 10.7716 9.8671V12.8379L10.7781 12.9355C10.8257 13.2863 11.1264 13.5567 11.4903 13.5567C11.8873 13.5567 12.2091 13.2349 12.2091 12.8379V9.8671L12.2025 9.76957Z" fill="#FCED69"/>
</svg>
