<svg width="22" height="22" viewBox="0 0 22 22" fill="none" xmlns="http://www.w3.org/2000/svg">
<path fill-rule="evenodd" clip-rule="evenodd" d="M11.0002 1.83351C5.93754 1.83351 1.83352 5.93784 1.83352 11.0002C1.83352 16.0625 5.93754 20.1668 11.0002 20.1668C16.0622 20.1668 20.1668 16.0622 20.1668 11.0002C20.1668 5.93815 16.0622 1.83351 11.0002 1.83351ZM11.0002 3.20852C15.3028 3.20852 18.7918 6.69754 18.7918 11.0002C18.7918 15.3028 15.3028 18.7918 11.0002 18.7918C6.69696 18.7918 3.20852 15.3031 3.20852 11.0002C3.20852 6.69722 6.69696 3.20852 11.0002 3.20852ZM5.79581 11.0004C5.79581 11.6054 6.28806 12.0976 6.89398 12.0976C7.49989 12.0976 7.99214 11.6054 7.99214 11.0004C7.99214 10.3954 7.49989 9.9022 6.89398 9.9022C6.28806 9.9022 5.79581 10.3954 5.79581 11.0004ZM11.0002 12.0976C10.3943 12.0976 9.90202 11.6054 9.90202 11.0004C9.90202 10.3954 10.3943 9.9022 11.0002 9.9022C11.6061 9.9022 12.0983 10.3954 12.0983 11.0004C12.0983 11.6054 11.6061 12.0976 11.0002 12.0976ZM14.0078 11.0004C14.0078 11.6054 14.5 12.0976 15.1059 12.0976C15.7118 12.0976 16.2041 11.6054 16.2041 11.0004C16.2041 10.3954 15.7118 9.9022 15.1059 9.9022C14.5 9.9022 14.0078 10.3954 14.0078 11.0004Z" fill="#FCED69"/>
</svg>
