<svg width="22" height="22" viewBox="0 0 22 22" fill="none" xmlns="http://www.w3.org/2000/svg">
<path fill-rule="evenodd" clip-rule="evenodd" d="M8.79211 2.29148C6.18154 2.29148 4.08595 4.38741 4.08595 6.99765C4.08595 9.60864 6.18138 11.7047 8.79211 11.7047C11.403 11.7047 13.4992 9.60851 13.4992 6.99765C13.4992 4.38754 11.4028 2.29148 8.79211 2.29148ZM8.79212 3.66648C10.6435 3.66648 12.1242 5.14698 12.1242 6.99765C12.1242 8.84912 10.6436 10.3297 8.79212 10.3297C6.94087 10.3297 5.46095 8.84935 5.46095 6.99765C5.46095 5.14676 6.94099 3.66648 8.79212 3.66648ZM18.3948 6.9817C18.3948 4.93339 16.7338 3.27195 14.6851 3.27195C14.3054 3.27195 13.9976 3.57975 13.9976 3.95945C13.9976 4.33915 14.3054 4.64695 14.6851 4.64695C15.9743 4.64695 17.0198 5.69271 17.0198 6.9817C17.0198 8.27126 15.9746 9.31645 14.6851 9.31645C14.3054 9.31645 13.9976 9.62426 13.9976 10.004C13.9976 10.3836 14.3054 10.6915 14.6851 10.6915C16.734 10.6915 18.3948 9.03065 18.3948 6.9817ZM17.6912 12.8277C17.1828 12.7149 16.6537 12.6386 16.1215 12.6025C15.7427 12.5767 15.4147 12.8629 15.3889 13.2417C15.3632 13.6205 15.6494 13.9485 16.0282 13.9743C16.4916 14.0058 16.9526 14.0723 17.4085 14.1732C18.1204 14.315 18.5919 14.5505 18.7194 14.818C18.8155 15.0202 18.8155 15.2572 18.7191 15.46C18.5924 15.7266 18.1234 15.9616 17.4186 16.1065C17.0467 16.183 16.8072 16.5465 16.8837 16.9185C16.9602 17.2904 17.3237 17.5299 17.6956 17.4534C18.7908 17.2281 19.5921 16.8266 19.961 16.0502C20.2349 15.4739 20.2349 14.8034 19.9609 14.2271C19.59 13.4487 18.7803 13.0443 17.6912 12.8277ZM1.8337 16.5168C1.8337 14.1109 4.36149 13.2516 8.79212 13.2516L9.08525 13.2529C13.3426 13.2899 15.7514 14.1498 15.7514 16.4984C15.7514 18.7973 13.4428 19.6842 9.37158 19.7585L8.79212 19.7636C4.35147 19.7636 1.8337 18.9195 1.8337 16.5168ZM14.3764 16.4984C14.3764 15.263 12.4784 14.6266 8.79211 14.6266C5.10954 14.6266 3.20869 15.2728 3.20869 16.5168C3.20869 17.7528 5.10498 18.3886 8.79211 18.3886C12.4749 18.3886 14.3764 17.7423 14.3764 16.4984Z" fill="#FCED69"/>
</svg>
