<svg width="22" height="22" viewBox="0 0 22 22" fill="none" xmlns="http://www.w3.org/2000/svg">
<path fill-rule="evenodd" clip-rule="evenodd" d="M4.58333 2.52083C3.95051 2.52083 3.4375 3.03384 3.4375 3.66666V18.3333C3.4375 18.9662 3.95051 19.4792 4.58333 19.4792H17.4167C18.0495 19.4792 18.5625 18.9662 18.5625 18.3333V7.6181L13.4652 2.52083H4.58333ZM2.0625 3.66666C2.0625 2.27444 3.19112 1.14583 4.58333 1.14583H13.5602C13.864 1.14583 14.1555 1.26655 14.3704 1.48144L19.6019 6.71295C19.8168 6.92784 19.9375 7.21928 19.9375 7.52318V18.3333C19.9375 19.7255 18.8089 20.8542 17.4167 20.8542H4.58333C3.19112 20.8542 2.0625 19.7255 2.0625 18.3333V3.66666Z" fill="#FCED69"/>
<path fill-rule="evenodd" clip-rule="evenodd" d="M13.0625 2.05464C13.0625 1.36048 13.9018 1.01284 14.3926 1.50369L19.5797 6.69072C20.0705 7.18156 19.7229 8.02084 19.0287 8.02084H13.8417C13.4113 8.02084 13.0625 7.67199 13.0625 7.24167V2.05464ZM14.4375 3.49311V6.64584H17.5902L14.4375 3.49311Z" fill="#FCED69"/>
<path fill-rule="evenodd" clip-rule="evenodd" d="M6.64583 11C6.64583 10.6203 6.95364 10.3125 7.33333 10.3125H14.6667C15.0464 10.3125 15.3542 10.6203 15.3542 11C15.3542 11.3797 15.0464 11.6875 14.6667 11.6875H7.33333C6.95364 11.6875 6.64583 11.3797 6.64583 11Z" fill="#FCED69"/>
<path fill-rule="evenodd" clip-rule="evenodd" d="M6.64583 14.6667C6.64583 14.287 6.95364 13.9792 7.33333 13.9792H14.6667C15.0464 13.9792 15.3542 14.287 15.3542 14.6667C15.3542 15.0464 15.0464 15.3542 14.6667 15.3542H7.33333C6.95364 15.3542 6.64583 15.0464 6.64583 14.6667Z" fill="#FCED69"/>
</svg>
