<svg width="22" height="22" viewBox="0 0 22 22" fill="none" xmlns="http://www.w3.org/2000/svg">
<path fill-rule="evenodd" clip-rule="evenodd" d="M13.3945 1.84522C13.3534 1.83753 13.3109 1.83352 13.2676 1.83352C13.2242 1.83352 13.1817 1.83753 13.1406 1.84522H7.4107C5.13068 1.84522 3.2087 3.69489 3.2087 5.95097V15.7932C3.2087 18.1743 5.04281 20.0438 7.4107 20.0438H14.733C16.9841 20.0438 18.8397 18.0803 18.8397 15.7932V7.36905C18.8397 7.19155 18.771 7.02092 18.6481 6.89288L14.0043 2.05655C13.8746 1.92154 13.6955 1.84522 13.5084 1.84522H13.3945ZM12.5801 3.21851L7.4107 3.21924C5.87853 3.21924 4.5837 4.46536 4.5837 5.94999V15.7922C4.5837 17.4197 5.80815 18.6678 7.4107 18.6678H14.733C16.2068 18.6678 17.4647 17.3367 17.4647 15.7922L17.4644 8.23468L16.6609 8.23741C16.3553 8.23704 16.0076 8.2364 15.621 8.23552C13.9982 8.23209 12.6743 6.96087 12.5849 5.36031L12.5801 5.1876V3.21851ZM16.7118 6.86037L15.624 6.86052C14.7015 6.85857 13.9551 6.11029 13.9551 5.1876V3.98947L16.7118 6.86037ZM10.6706 7.96657C11.0187 7.96657 11.3063 8.22521 11.3519 8.56078L11.3581 8.65407V13.0136L12.7855 11.5812C13.0535 11.3121 13.4888 11.3112 13.7578 11.5791C14.0024 11.8227 14.0254 12.2046 13.8263 12.4741L13.7599 12.5514L11.1594 15.1629L11.1574 15.1648M10.1889 15.1698L10.183 15.1647L7.58153 12.5513C7.31366 12.2822 7.31465 11.8469 7.58375 11.579C7.82839 11.3355 8.21038 11.3142 8.47907 11.5145L8.55602 11.5812L9.98315 13.0156V8.65407C9.98315 8.27437 10.291 7.96657 10.6706 7.96657M10.1889 15.1698C10.2093 15.1899 10.2311 15.2087 10.2539 15.2262L10.2602 15.2316C10.5291 15.4319 10.9113 15.4103 11.1557 15.1666" fill="#FCED69"/>
</svg>
