<svg width="25" height="25" viewBox="0 0 25 25" fill="none" xmlns="http://www.w3.org/2000/svg">
<path fill-rule="evenodd" clip-rule="evenodd" d="M17.7668 0.416656H7.23307C3.14246 0.416656 0.416626 3.3407 0.416626 7.53757V17.4624C0.416626 21.6632 3.13528 24.5833 7.23307 24.5833H17.7668C21.8646 24.5833 24.5833 21.6632 24.5833 17.4624V7.53757C24.5833 3.33678 21.8646 0.416656 17.7668 0.416656ZM7.23305 2.1027H17.7668C20.9054 2.1027 22.8972 4.24209 22.8972 7.53757V17.4624C22.8972 20.7579 20.9054 22.8973 17.7668 22.8973H7.23305C4.09444 22.8973 2.10265 20.7579 2.10265 17.4624V7.53757C2.10265 4.24646 4.10109 2.1027 7.23305 2.1027ZM12.4999 7.52874C12.9267 7.52874 13.2794 7.84589 13.3353 8.25737L13.343 8.37177V11.6463H16.6214C17.087 11.6463 17.4644 12.0237 17.4644 12.4893C17.4644 12.9161 17.1473 13.2688 16.7358 13.3246L16.6214 13.3323H13.343V16.6068C13.343 17.0724 12.9655 17.4498 12.4999 17.4498C12.0732 17.4498 11.7204 17.1327 11.6646 16.7212L11.6569 16.6068V13.3323H8.37849C7.9129 13.3323 7.53546 12.9549 7.53546 12.4893C7.53546 12.0625 7.85261 11.7098 8.26409 11.654L8.37849 11.6463H11.6569V8.37177C11.6569 7.90618 12.0344 7.52874 12.4999 7.52874Z" fill="#003D93"/>
</svg>
