<svg width="22" height="22" viewBox="0 0 22 22" fill="none" xmlns="http://www.w3.org/2000/svg">
<path d="M18.3333 5.49999H14.6667V4.58333C14.6667 3.85398 14.3769 3.15451 13.8612 2.63878C13.3455 2.12306 12.646 1.83333 11.9167 1.83333H10.0833C9.35399 1.83333 8.65451 2.12306 8.13879 2.63878C7.62306 3.15451 7.33333 3.85398 7.33333 4.58333V5.49999H3.66667C3.42355 5.49999 3.19039 5.59657 3.01849 5.76848C2.84658 5.94039 2.75 6.17355 2.75 6.41666C2.75 6.65978 2.84658 6.89293 3.01849 7.06484C3.19039 7.23675 3.42355 7.33333 3.66667 7.33333H4.58333V17.4167C4.58333 18.146 4.87306 18.8455 5.38879 19.3612C5.90451 19.8769 6.60399 20.1667 7.33333 20.1667H14.6667C15.396 20.1667 16.0955 19.8769 16.6112 19.3612C17.1269 18.8455 17.4167 18.146 17.4167 17.4167V7.33333H18.3333C18.5764 7.33333 18.8096 7.23675 18.9815 7.06484C19.1534 6.89293 19.25 6.65978 19.25 6.41666C19.25 6.17355 19.1534 5.94039 18.9815 5.76848C18.8096 5.59657 18.5764 5.49999 18.3333 5.49999ZM9.16667 4.58333C9.16667 4.34021 9.26324 4.10706 9.43515 3.93515C9.60706 3.76324 9.84022 3.66666 10.0833 3.66666H11.9167C12.1598 3.66666 12.3929 3.76324 12.5648 3.93515C12.7368 4.10706 12.8333 4.34021 12.8333 4.58333V5.49999H9.16667V4.58333ZM15.5833 17.4167C15.5833 17.6598 15.4868 17.8929 15.3148 18.0648C15.1429 18.2368 14.9098 18.3333 14.6667 18.3333H7.33333C7.09022 18.3333 6.85706 18.2368 6.68515 18.0648C6.51324 17.8929 6.41667 17.6598 6.41667 17.4167V7.33333H15.5833V17.4167Z" fill="#003D93"/>
</svg>
